HIERARCHY
ROOT Hips
{
    OFFSET 0.000000 0.000000 0.000000
    CHANNELS 6 Xposition Yposition Zposition Zrotation Xrotation Yrotation
    JOINT Spine
    {
        OFFSET -0.000000 14.517291 0.000000
        CHANNELS 3 Zrotation Xrotation Yrotation
        JOINT Spine1
        {
            OFFSET -0.000000 37.558300 0.000000
            CHANNELS 3 Zrotation Xrotation Yrotation
            JOINT Neck
            {
                OFFSET -0.000000 37.404057 3.400369
                CHANNELS 3 Zrotation Xrotation Yrotation
                JOINT Head
                {
                    OFFSET -0.000000 24.785618 -3.540803
                    CHANNELS 3 Zrotation Xrotation Yrotation
                    End Site
                    {
                        OFFSET -0.000000 35.408028 0.000000
                    }
                }
            }
            JOINT LeftShoulder
            {
                OFFSET 6.992933 33.973492 -0.192664
                CHANNELS 3 Zrotation Xrotation Yrotation
                JOINT LeftArm
                {
                    OFFSET 21.527611 0.000000 0.000000
                    CHANNELS 3 Zrotation Xrotation Yrotation
                    JOINT LeftForeArm
                    {
                        OFFSET 56.353916 0.000000 0.000000
                        CHANNELS 3 Zrotation Xrotation Yrotation
                        JOINT LeftHand
                        {
                            OFFSET 47.774071 0.000000 0.000000
                            CHANNELS 3 Zrotation Xrotation Yrotation
                            End Site
                            {
                                OFFSET 26.556021 0.000000 0.000000
                            }
                        }
                    }
                }
            }
            JOINT RightShoulder
            {
                OFFSET -7.065357 33.973492 -0.192664
                CHANNELS 3 Zrotation Xrotation Yrotation
                JOINT RightArm
                {
                    OFFSET -21.527611 0.000000 0.000000
                    CHANNELS 3 Zrotation Xrotation Yrotation
                    JOINT RightForeArm
                    {
                        OFFSET -56.353916 0.000000 0.000000
                        CHANNELS 3 Zrotation Xrotation Yrotation
                        JOINT RightHand
                        {
                            OFFSET -47.774071 0.000000 0.000000
                            CHANNELS 3 Zrotation Xrotation Yrotation
                            End Site
                            {
                                OFFSET -26.556021 0.000000 0.000000
                            }
                        }
                    }
                }
            }
        }
    }
    JOINT LeftUpLeg
    {
        OFFSET 17.704014 0.000000 0.000000
        CHANNELS 3 Zrotation Xrotation Yrotation
        JOINT LeftLeg
        {
            OFFSET -0.000000 -81.181816 0.000000
            CHANNELS 3 Zrotation Xrotation Yrotation
            JOINT LeftFoot
            {
                OFFSET -0.000000 -62.821102 0.000000
                CHANNELS 3 Zrotation Xrotation Yrotation
                JOINT LeftToeBase
                {
                    OFFSET -0.000000 -11.507608 26.556021
                    CHANNELS 3 Zrotation Xrotation Yrotation
                    End Site
                    {
                        OFFSET -0.000000 0.000000 7.081605
                    }
                }
            }
        }
    }
    JOINT RightUpLeg
    {
        OFFSET -17.704014 0.000000 0.000000
        CHANNELS 3 Zrotation Xrotation Yrotation
        JOINT RightLeg
        {
            OFFSET -0.000000 -81.181816 0.000000
            CHANNELS 3 Zrotation Xrotation Yrotation
            JOINT RightFoot
            {
                OFFSET -0.000000 -62.821102 0.000000
                CHANNELS 3 Zrotation Xrotation Yrotation
                JOINT RightToeBase
                {
                    OFFSET -0.000000 -11.507608 26.556021
                    CHANNELS 3 Zrotation Xrotation Yrotation
                    End Site
                    {
                        OFFSET -0.000000 0.000000 7.081605
                    }
                }
            }
        }
    }
}
MOTION
Frames:    4
Frame Time:    0.008333
-11.800702    153.736237    -30.078114    -3.429440    0.472445    -25.175211    4.119695    0.667159    13.569340    -4.807503    -0.107275    4.527246    8.670835    -6.302657    -0.477307    3.770236    11.731486    -2.120415    1.849641    3.331901    -6.995924    -46.555882    15.540109    -31.232330    -5.764025    -18.443266    -126.310577    -2.048299    -28.828827    -4.346510    -15.660974    -0.529909    6.871858    33.399559    -16.769880    80.342285    3.803931    -17.514990    30.657162    13.139175    -13.462468    43.350700    5.749161    -37.732388    -0.850222    -17.300501    22.870615    -4.588053    -32.589527    10.075765    41.272560    0.000000    0.000000    0.000000    11.572099    3.166394    -13.970889    4.150057    28.060051    -5.018323    -9.105333    -28.002394    -10.937742    0.000000    0.000000    0.000000    
-11.304271    153.998322    -30.585108    -3.473659    0.401590    -24.990324    4.147744    0.698430    13.534878    -4.717713    0.035287    4.522163    8.663127    -6.301262    -0.502052    3.656277    11.796650    -2.151272    1.837552    3.328597    -7.014387    -46.553261    15.525412    -31.288870    -5.816486    -18.320667    -126.296349    -1.967882    -28.808147    -4.291990    -15.690739    -0.519168    6.842743    33.415482    -16.768049    80.312263    3.767353    -17.557255    30.638195    13.176537    -13.480957    43.346939    6.169807    -37.742603    -0.515742    -17.076546    22.711573    -4.875975    -33.336834    9.489024    41.133362    0.000000    0.000000    0.000000    11.444974    3.063387    -13.895424    4.398723    27.823345    -5.229217    -9.133873    -27.621372    -10.916748    0.000000    0.000000    0.000000    
-10.826293    154.263565    -31.088078    -3.505273    0.349789    -24.819073    4.116046    0.729521    13.500502    -4.575909    0.111615    4.514041    8.600183    -6.287826    -0.543421    3.644222    11.918056    -2.184799    1.840073    3.330374    -7.005775    -46.598053    15.597199    -31.322371    -5.846567    -18.255438    -126.312561    -1.917529    -28.806866    -4.234816    -15.707277    -0.473869    6.797741    33.448242    -16.735970    80.323105    3.725235    -17.613321    30.612883    13.228086    -13.501481    43.380104    6.606761    -37.724991    -0.200615    -16.790422    22.573902    -5.269614    -33.340591    9.320939    40.794399    0.000000    0.000000    0.000000    11.343734    2.951021    -13.991180    4.511049    27.563305    -5.276694    -9.143971    -27.216213    -10.868224    0.000000    0.000000    0.000000    
-10.357225    154.510574    -31.549316    -3.521111    0.298621    -24.636667    4.096807    0.755106    13.465890    -4.502481    0.145681    4.504037    8.588403    -6.223049    -0.596139    3.650676    12.019875    -2.235489    1.901320    3.372591    -6.990458    -46.650009    15.670943    -31.386753    -5.885617    -18.183065    -126.332291    -1.829460    -28.816671    -4.173091    -15.651209    -0.405553    6.789458    33.411652    -16.713764    80.271767    3.688486    -17.666931    30.596943    13.236882    -13.542003    43.383015    7.016063    -37.688278    0.058815    -16.458475    22.493187    -5.628131    -34.587467    8.246888    41.477722    0.000000    0.000000    0.000000    11.257764    2.852607    -14.112377    4.543740    27.287123    -5.370710    -9.099755    -26.871220    -10.726394    0.000000    0.000000    0.000000    
